<svg xmlns="http://www.w3.org/2000/svg" viewBox="0 0 117.7 23.7" fill="#E20714"><path d="M10.9 13.3h3.5v10.3S6 25.3 1.7 17.4h4S7.5 20 11 20.3v-7z"/><path d="M2.6 5.2h4.6s5.9-4.5 11.6.9h-17s-3 4.5-.7 10.4h3.8s-2.3-4-.7-7h20.3S23 .9 13.3.2c0 0-7.4-.4-10.7 5M15.5 20v3.4s7.9-1.4 9.4-10.3h-3.5c-.1.1-.6 5.2-5.9 6.9"/><path d="M12.6 13.1c1 0 1.8-.7 1.8-1.7s-.8-1.7-1.8-1.7-1.8.8-1.8 1.7.8 1.7 1.8 1.7m13.6 8.2v1.2s2.9-.2 3.4-2.7v-6.5h-1.3s.1 5.2 0 6.2c-.1 0 0 1.3-2.1 1.8m3.9 1c.5-4.2 1.9-6.4 3.3-7.6v2.2c-.4.5-.8 1.1-1 1.8h1V20h-1.5c-.4 1.4-.4 2.2-.4 2.2h-1.4v.1zm3.3-7.6c1.3-1.1 2.5-1.3 2.5-1.3v8.9h-1.5V20h-1v-1.4h1v-2.8s-.5.3-1 1v-2.1zm3.4-1.5h1.5c.3 0 .6.1.8.1v1.4c-.3-.1-.6-.2-.9-.2V18s.5 0 .9-.2v3c-.3-.3-.6-.7-.8-1.2-.1.1-.2 0-.2 0v2.5h-1.3v-8.9zm2.3.1c2.1.5 2.2 2.6 2.2 2.6.1 2.2-1.8 3.1-1.8 3.1.5 1.5 2 1.9 2 1.9v1.2c-1-.1-1.9-.6-2.5-1.4v-3c.5-.2 1-.7.9-1.7 0 0 0-.9-.9-1.3.1 0 .1-1.4.1-1.4zm4.7-.1v9.1h-1.4v-9.1m2.5 0h1.5c.3 0 .6.1.8.1v1.4c-.2-.1-.5-.2-.9-.2V18s.5 0 .9-.2v3c-.5-.6-.8-1.2-.8-1.2-.1.1-.2 0-.2 0v2.5h-1.3v-8.9zm2.3.1c2.1.5 2.2 2.6 2.2 2.6.1 2.2-1.8 3.1-1.8 3.1.5 1.5 2 1.9 2 1.9v1.3c-1.2-.2-2-.8-2.5-1.4v-3c.5-.2 1-.7.9-1.8 0 0 0-.9-.9-1.3.1 0 .1-1.4.1-1.4zm24.1 4.4c0-1.9 1.6-3.4 3.5-3.4v-1.2c-2.7 0-4.8 2.1-4.8 4.7 0 2.5 2.2 4.6 4.8 4.6v-1.3c-1.9 0-3.5-1.5-3.5-3.4zm3.5-3.4c2 0 3.5 1.5 3.5 3.4s-1.6 3.4-3.5 3.4v1.3c2.7 0 4.9-2.1 4.9-4.6 0-2.6-2.2-4.7-4.9-4.7v1.2zm-13.6 3.4c0-1.9 1.6-3.4 3.6-3.4v-1.2c-2.7 0-4.8 2.1-4.8 4.6 0 2.5 2.2 4.6 4.8 4.6V21c-2 .1-3.6-1.5-3.6-3.3zm3.5-3.4c2 0 3.5 1.5 3.5 3.4s-1.6 3.4-3.5 3.4v1.3c2.7 0 4.9-2.1 4.9-4.6 0-2.6-2.2-4.6-4.9-4.6v1.1zM82 19.2v2.9h-1.3v-8.9h1.2V17s2.1-.1 2.7-3.7h1.2s.4 2.6-2.8 4.8c0 0 1.4 2.8 3 2.9v1.2s-2.4-.1-3.9-3H82zm5.2 1.2l-.1 1.3s.9.7 2 .6c0 0 2.5-.2 2.8-2.7 0 0 .1-1.4-1.1-2.4 0 0-1.3-.5-2-1 0 0-1.2-1 .6-1.8 0 0 .9-.2 1.4.3l.2-1.3s-.6-.8-2.3-.3c0 0-1.5.4-1.7 2 0 0-.2 1 .8 2 0 0 .7.6 1.8 1 0 0 1 .2.8 1.3 0 0-.1 1-1 1.3-.1.1-.9.4-2.2-.3M92 15s.8-.6 1.7-.6v7.7h1.5v-7.7s.8-.1 1.8.7l.4-1.2s-.4-.8-3-1c0 0-1.5 0-3.1.9L92 15zm15.5 7v-9s1.1-.2 2.3.2v1.4c-.2-.1-.5-.2-.9-.1V18s.5-.1.9-.3v3.2c-.3-.3-.5-.7-.8-1.1h-.1V22h-1.4zm2.2-8.8c1 .3 2.1 1 2.3 2.7 0 0 .1 1.9-1.8 3 0 0-.2.9 2 2v1.2s-1.4-.1-2.5-1.3v-3.2c.5-.3.9-.7.9-1.6 0 0 0-1.1-.9-1.5v-1.3zm2.9 4s-.2 4.9 5.1 5.1V21s-3.2 0-3.6-2.7h3.6V17h-3.6s.3-2.7 3.6-2.8V13s-4.5-.2-5.1 4.2m-14.1.4c0-1.9 1.6-3.4 3.5-3.4V13c-2.7 0-4.8 2.1-4.8 4.7 0 2.5 2.2 4.6 4.8 4.6V21c-1.9 0-3.5-1.5-3.5-3.4zm3.5-3.4c2 0 3.5 1.5 3.5 3.4S103.9 21 102 21v1.3c2.7 0 4.8-2.1 4.8-4.6 0-2.6-2.2-4.7-4.8-4.7v1.2zm-44.8 3.1c-.2.2-.4.3-.6.4.2 0 .4.1.6.2v-.6zM55 13.4s1.2-.1 2.2.2V15c-.2-.1-.5-.2-.8-.3V21s.4 0 .8-.2v1.4c-.2 0-.4.1-.6.1 0 0-.8.1-1.6.1v-9zm2.2.2c.7.2 1.3.7 1.6 1.4 0 0 .5 1.5-.2 2.5 0 0 .7.4.7 1.6v.3c0 .2 0 .5-.1.7 0 0-.3 1.5-2 1.9v-1.4c.5-.2.9-.7.8-1.6 0 0-.1-.8-.8-1.2v-.7c.3-.3.6-.7.6-1.2 0 0 0-.7-.6-1.1v-1.2zM27.1 9.4s.4 1.7 2.6 1.5c0 0 1.8-.2 2.4-2.6H48V3.7h-1.8v2.6h-14v-.8h-1.8v2.9c-.1-.1-.1 2.1-3.3 1"/><path d="M40.1 11.1c.6 0 1.2-.5 1.2-1.1 0-.6-.5-1.1-1.2-1.1-.6 0-1.1.5-1.1 1.1 0 .6.5 1.1 1.1 1.1m2.5 0c.6 0 1.2-.5 1.2-1.1 0-.6-.5-1.1-1.2-1.1-.6 0-1.2.5-1.2 1.1.1.6.6 1.1 1.2 1.1m27.8-4.7H54.7v-1h-1.8v3.2s-.7 1.9-3.1.4c0 0 .4 2 2.6 1.8 0 0 1.8-.1 2.4-2.4h18.5V6.5h-.7s.3-1.9-2-2.8c0 0-3.2-.5-4.4-1 0 0-.7-.3-1.3-1.2 0 0-.9 1 .1 2.5 0 0 .1.7 2.3.9 0 0 1.6.1 2.6.6 0 0 .6.4.5.9"/><path d="M68.4 11.1c.6 0 1.2-.5 1.2-1.1 0-.6-.5-1.1-1.2-1.1-.6 0-1.2.5-1.2 1.1 0 .6.5 1.1 1.2 1.1m7.2-2.8s-.1-.2-.1-.6c0-1.1.3-3.5 2.9-4.7v2.2c-.4.4-.8.9-.8 1.5h.8v1.7l-2.8-.1zM78.4 3c.6-.3 1.4-.5 2.4-.7v4.3h5.3V4.2h1.7v2.4H91V4.1h1.7v2.5H108s.5-.4-.1-.6H96.5l.1-1.7s1.8-1.2 1.5-3.7h1.6s.1 2.2-.8 3.7h9.7s1.9.1 1.7 2.3h3.4s0-1.8 2.1-1.7h.1v1.3h-.1s-.1 0-.2.4h.3v1.8H78.4V6.7h.8V4.5s-.4.2-.8.6V3zm37.4 1.8c.3 0 1.5.1 1.8 1.4v2.2h-1.8V6.5h.3s-.1-.3-.3-.4V4.8zM75.4 2.5c.6 0 1.2-.5 1.2-1.1 0-.6-.5-1.1-1.2-1.1-.6 0-1.2.5-1.2 1.1.1.6.6 1.1 1.2 1.1m2.9 0c.6 0 1.2-.5 1.2-1.1 0-.6-.5-1.1-1.2-1.1-.6 0-1.2.5-1.2 1.1 0 .6.6 1.1 1.2 1.1"/><path d="M89.7 2.5c.6 0 1.2-.5 1.2-1.1 0-.6-.5-1.1-1.2-1.1-.6 0-1.2.5-1.2 1.1 0 .6.5 1.1 1.2 1.1m3.1 0c.7 0 1.2-.5 1.2-1.1 0-.6-.5-1.1-1.2-1.1-.6 0-1.2.5-1.2 1.1.1.6.6 1.1 1.2 1.1M87 11.1c.6 0 1.2-.5 1.2-1.1 0-.6-.5-1.1-1.2-1.1-.6 0-1.2.5-1.2 1.1 0 .6.5 1.1 1.2 1.1"/></svg>